PathFileType	4	(X/Y/Z)	29_2_97_p1_0-538_filt_butterworth.trc
DataRate	CameraRate	NumFrames	NumMarkers	Units	OrigDataRate	OrigDataStartFrame	OrigNumFrames
59.0	59.0	5	27	m	59.0	403	538
Frame#	Time	RHip			RKnee			RAnkle			RBigToe			RSmallToe			RHeel			LHip			LKnee			LAnkle			LBigToe			LSmallToe			LHeel			Neck			Head			Nose			RShoulder			RElbow			RWrist			RThumb			RIndex			RPinky			LShoulder			LElbow			LWrist			LThumb			LIndex			LPinky			
		X1	Y1	Z1	X2	Y2	Z2	X3	Y3	Z3	X4	Y4	Z4	X5	Y5	Z5	X6	Y6	Z6	X7	Y7	Z7	X8	Y8	Z8	X9	Y9	Z9	X10	Y10	Z10	X11	Y11	Z11	X12	Y12	Z12	X13	Y13	Z13	X14	Y14	Z14	X15	Y15	Z15	X16	Y16	Z16	X17	Y17	Z17	X18	Y18	Z18	X19	Y19	Z19	X20	Y20	Z20	X21	Y21	Z21	X22	Y22	Z22	X23	Y23	Z23	X24	Y24	Z24	X25	Y25	Z25	X26	Y26	Z26	X27	Y27	Z27	
403	6.830508474576271	0.34632303701587225	0.7871924235815722	0.8012899088545524	0.32994367624414006	0.3542508111332458	0.7982202778403099	0.29524907361787106	-0.11861695979534044	0.8352788535880066	0.2928038614065588	-0.08778789660915794	0.627976640532381	0.35125630863225765	-0.06732638469313705	0.6300518025777807	0.27411602687006115	-0.1879132136168306	0.9010944227866672	0.12640723195402961	0.7797116476282163	0.783421954553581	0.1171864614937178	0.37202316110910494	0.784216373076278	0.0915987017320209	-0.08366411709916916	0.8093742492873461	0.11690357390915787	-0.05046678777897838	0.5981407056879343	0.058736169144231166	-0.06654344744102882	0.6510117721184245	0.10372027350935999	-0.16507594125659136	0.8874956000513302	0.22833318751571208	1.36425893705333	0.830179045058608	0.2371452679430447	1.611467146740006	0.823566631622072	0.2371451875850601	1.50556994158916	0.7508848891367947	0.37908194405066714	1.2646877864792296	0.8706864116071652	0.46261747249747576	1.0084923558113381	0.819111222741535	0.4800460647498731	1.1771136911966311	0.665796870240627	0.45397060650772364	1.26489355656952	0.6399373060067345	0.4713530943194642	1.2585635636941788	0.6339251432427953	0.48712558500287984	1.2149551795851614	0.6210926333207101	0.05847664551987479	1.2554600682831982	0.8154861411042972	0.0019543393799947776	1.02694505658172	0.7328268459244889	0.103269666689036	1.1161592764435913	0.632984797595195	0.17851135322299877	1.1826964965875693	0.5905302755041544	0.18925519852449502	1.1987886095760314	0.5050610050646283	0.171413517823405	1.1322861648369422	0.5745941176306084	
404	6.8474576271186445	0.346991528413499	0.7860471068972794	0.8020961087267631	0.3299872435462328	0.3540137657778751	0.798262043157163	0.2953956868835955	-0.11859653544255232	0.8351558674061159	0.2927100368320478	-0.08661500151582664	0.6283437914595177	0.35115044826309166	-0.06781714731037435	0.6307376968118652	0.2741997048912602	-0.18858060430216483	0.9012361585754041	0.1264676259484843	0.7791477384906365	0.7849448650396229	0.11723281431937785	0.3717916354191805	0.7842980923910287	0.0915501695597322	-0.08349104451315821	0.809458119251547	0.11682862127374899	-0.049488966215951335	0.5977521489412281	0.058757415331898995	-0.06660388045565796	0.6509405352501356	0.10361060377788268	-0.16548400845574796	0.8884350853003575	0.2313365254758742	1.363486464787284	0.8329777775359597	0.23969039236278505	1.6114720507696716	0.8256470578234002	0.23979927505113047	1.5054287120155123	0.7474302237509047	0.3804795238511598	1.264283573684619	0.8708967204223588	0.4641664644951379	1.0038420573818376	0.8218445255936644	0.47995058629529286	1.1726884796308867	0.6650188231561469	0.4521205522136627	1.2606711723046753	0.6378968193028014	0.4689430128600023	1.2526142245601368	0.6332243604390932	0.4853380231890344	1.211454297948897	0.6240855604944693	0.06061979274948274	1.2559507716410663	0.8159700518563129	0.0040772741197448465	1.0268745624664863	0.7373045147945114	0.10524466187575598	1.1160165209960113	0.6331182060402295	0.18027187425239882	1.1836420120882432	0.5858459738454633	0.18989317544456594	1.1987227671377165	0.5051052812933475	0.17386119075276263	1.1339612227786422	0.5685345345301761	
405	6.864406779661017	0.3475813385269464	0.7848987380141942	0.8029959964136771	0.3300400683619994	0.35371201228417004	0.7983479530938107	0.2955245843188687	-0.11857136738986361	0.8349755740309889	0.2927090490543765	-0.08570550041307953	0.6287421409636952	0.35114717594865663	-0.06818717602855678	0.6312601655554181	0.2742794632250295	-0.18919810126236264	0.9013667706055862	0.12650293376429858	0.7786740976923876	0.7862950055159555	0.11725486823129924	0.37159167140918653	0.7843550824441814	0.0914452336378555	-0.08335789921863418	0.8097297566008465	0.1167415966172912	-0.048305291552524304	0.5973620902273769	0.058782981779646255	-0.0667410077062645	0.6509340992059203	0.10352712578625702	-0.16575060993547627	0.8891296948579215	0.234177537726666	1.3631277146160863	0.835156425494522	0.24240586434355121	1.6113587191684806	0.8278856175043667	0.24238933644224825	1.5054078037903216	0.7435124646974609	0.3812066083469397	1.2635492983262893	0.8711795560803366	0.4661865327301511	0.9993465561743934	0.8256594925963243	0.47915043365017673	1.1681203437045233	0.6629573166115279	0.45011439081584537	1.257331974757717	0.6361156534644719	0.4662441214472287	1.247119951131268	0.6327692998867143	0.48326544955653633	1.2081602741081763	0.6262924922894442	0.06293809568243208	1.2563438950770551	0.815929435417571	0.00676789194591011	1.026136559236374	0.7429216979039226	0.10829113345414364	1.1158308085030186	0.6338330550858752	0.18271950699348055	1.1850069448856697	0.5803242272749227	0.191565431406154	1.1980234092254718	0.5082844413234376	0.1765872461655091	1.1356506367550583	0.5627138647313944	
406	6.88135593220339	0.34809459887776184	0.7837551204398333	0.8039456449942166	0.33007460873124206	0.35335612128732374	0.7984413724134874	0.29564338452831523	-0.1184852607141936	0.8347570260905286	0.29283872773761455	-0.08537815325316622	0.6291625380648221	0.3512094370756359	-0.06829468908391714	0.631411332863446	0.27434254455662915	-0.18963966103182003	0.901486098882367	0.12656329380461476	0.7783743653572222	0.7872220909427268	0.11725765950188016	0.371426752410144	0.784376303095676	0.09129504545713737	-0.08340865746868921	0.8101728567560206	0.11666156873909501	-0.04718612885451984	0.597049031502021	0.05880899522420742	-0.06685093610026745	0.6509815025251846	0.10343497666103924	-0.165888080287379	0.889617844026812	0.23690622067565004	1.3632872537129515	0.8365420311323111	0.24544926802118275	1.611060386987063	0.8307733511561364	0.2448873814370263	1.5058063936433992	0.7392951455241035	0.38155994827947254	1.2622656620302974	0.8715285692495797	0.4684217597551522	0.9952280165794312	0.8299318794267874	0.4777666717952471	1.1634848269136222	0.6605395680535842	0.44819575684113544	1.2548619265593242	0.6345768821075122	0.4635193860236281	1.2424291349824368	0.6324804916175977	0.48077003062922363	1.204922598569329	0.62755292555836	0.06553123589693062	1.2567541394940114	0.81474458114051	0.00961548414058538	1.0249699500733231	0.7486197078758414	0.11212930085042801	1.1155811539456406	0.6346991898244241	0.18595875377837062	1.1869468556900613	0.5748478099769923	0.1942006465144936	1.197357162666962	0.5132739135565944	0.1798158118574039	1.137236839275672	0.5570927306810188	
407	6.898305084745763	0.3486100669559212	0.7825666543786395	0.8049204030827658	0.33005871503868145	0.3529913616657463	0.7985120262728489	0.2957746299341625	-0.11829830164705658	0.8345469139233002	0.2929782379525962	-0.0856981521897312	0.6295453553481578	0.35131461947745385	-0.06825123900832379	0.6313451405120047	0.2743834505182574	-0.189857861052882	0.9015949274416449	0.12667735780310244	0.778308348892949	0.7876360681620231	0.11725400230987479	0.3713407749546347	0.7843674837486428	0.09116861453886675	-0.08362934814944405	0.8106262239674487	0.11659649951844349	-0.046249337811216804	0.596861167459239	0.05883386632819505	-0.06690555886711648	0.6510455273005985	0.10330751064762153	-0.16588143030765237	0.8899119113023428	0.23959025208014817	1.3639129532573362	0.8371348512785729	0.24885996364511273	1.6106529989015006	0.8345145121050845	0.24735786030090634	1.5067704683586025	0.7348486961394549	0.3818434437949707	1.260533936346016	0.871889703607579	0.4705562876693251	0.991596659952466	0.8340836695955792	0.47611897259402547	1.1588282259614822	0.658797320814327	0.4464224938370128	1.2531778991479863	0.6327977225891224	0.4609380339043342	1.2387604449879133	0.6321016647659703	0.4778042392961406	1.201665714895899	0.6274294373638776	0.06870424641386155	1.2573965065490977	0.8117067269592195	0.012085119648457508	1.0238087269451288	0.7529610254123544	0.11647994219063816	1.1153584209919456	0.6351062583764264	0.1897158764598996	1.18961007152057	0.5700805283650301	0.197472058907594	1.1973292946691678	0.5187190737865531	0.183599215204709	1.1386066048264107	0.5517427086772992	
